# xmcd
#
# Track frame offsets:
#	150
#	19963
#	36549
#	52172
#	78625
#	92735
#	112580
#	129664
#	143476
#	160506
#	184828
#	198483
#
# Disc length: 2950 seconds
#
# Revision: 3
# Processed by: cddbd v1.4PL0 Copyright (c) Steve Scherf et al.
# Submitted via: MusicWizard 6.0.0
#
DISCID=a00b840c
DTITLE=Shannon Mem - Spend Some Time With Me
DYEAR=1999
DGENRE=Blues
TTITLE0=Who Are They
TTITLE1=Paying My Dues
TTITLE2=Not My Friend
TTITLE3=Don't Talk About My Mama
TTITLE4=The Last Time I Was Here
TTITLE5=Pray For The Children
TTITLE6=Dirty Dishes
TTITLE7=A Certain Shade Of Blue
TTITLE8=Spend Some Time With Me
TTITLE9=Mother's Love
TTITLE10=Born In This Time
TTITLE11=No Such Thing
EXTD=Mem Shannon voc, g - Jimmy Ives b - Chuck Chaplin kb - Tony Seruntine dr - Jason Mingledorff sax;
EXTD=Mark Mullins tb - Tracy Griffin tp, flh - Dave Easley pedal g - Pupi Menes congas;
EXTT0=
EXTT1=
EXTT2=
EXTT3=
EXTT4=
EXTT5=
EXTT6=
EXTT7=
EXTT8=
EXTT9=
EXTT10=
EXTT11=
PLAYORDER=
